# xmcd CD database file
#
# Track frame offsets:
#	150
#	13604
#	27726
#	38851
#	60022
#	84330
#	100195
#	118388
#	145660
#	163002
#	189452
#	207788
#	220525
#	234753
#	250464
#	264411
#
# Disc length: 3762 seconds
#
# Revision: 0
# Processed by: cddbd v1.5.2PL0 Copyright (c) Steve Scherf et al.
# Submitted via: CDex 1.51
#
DISCID=d00eb010
DTITLE=Natalie Cole - Still Unforgettable
DYEAR=2008
DGENRE=Jazz
TTITLE0=Walkin' My Baby Back Home
TTITLE1=Come Rain Or Come Shine
TTITLE2=Coffee Time
TTITLE3=Somewhere  Along The Way
TTITLE4=You Go To My Head
TTITLE5=Nice'N'Easy
TTITLE6=Why Don't You Do Right ?
TTITLE7=Here's That Rainy Day
TTITLE8=But Beautiful
TTITLE9=Lollipops And Roses
TTITLE10=The Best Is Yet To Come
TTITLE11=Something's Gotta Give
TTITLE12=Until The Real Thing Comes Along
TTITLE13=It's All Right With Me
TTITLE14=Alle The Things You Are
TTITLE15=Busted
EXTD=YEAR: 2008
EXTT0=
EXTT1=
EXTT2=
EXTT3=
EXTT4=
EXTT5=
EXTT6=
EXTT7=
EXTT8=
EXTT9=
EXTT10=
EXTT11=
EXTT12=
EXTT13=
EXTT14=
EXTT15=
PLAYORDER=
